{
    "asset" : {
        "generator" : "Khronos Blender glTF 2.0 I/O",
        "version" : "2.0"
    },
    "scene" : 0,
    "scenes" : [
        {
            "name" : "Scene",
            "nodes" : [
                0
            ]
        }
    ],
    "nodes" : [
        {
            "mesh" : 0,
            "name" : "Cube",
            "translation" : [
                0.003819376230239868,
                -0.002341747283935547,
                0.2331634759902954
            ]
        }
    ],
    "materials" : [
        {
            "name" : "Material",
            "pbrMetallicRoughness" : {
                "baseColorFactor" : [
                    0.003664559219032526,
                    0,
                    0.09083804488182068,
                    1
                ],
                "metallicFactor" : 0.6363636255264282,
                "roughnessFactor" : 0.5
            }
        }
    ],
    "meshes" : [
        {
            "name" : "Cube.004",
            "primitives" : [
                {
                    "attributes" : {
                        "POSITION" : 0,
                        "NORMAL" : 1,
                        "TEXCOORD_0" : 2
                    },
                    "indices" : 3,
                    "material" : 0
                }
            ]
        }
    ],
    "accessors" : [
        {
            "bufferView" : 0,
            "componentType" : 5126,
            "count" : 3722,
            "max" : [
                1.8200175762176514,
                1.669222116470337,
                2.234790325164795
            ],
            "min" : [
                -1.821175217628479,
                -1.6686323881149292,
                -2.2347910404205322
            ],
            "type" : "VEC3"
        },
        {
            "bufferView" : 1,
            "componentType" : 5126,
            "count" : 3722,
            "type" : "VEC3"
        },
        {
            "bufferView" : 2,
            "componentType" : 5126,
            "count" : 3722,
            "type" : "VEC2"
        },
        {
            "bufferView" : 3,
            "componentType" : 5123,
            "count" : 10980,
            "type" : "SCALAR"
        }
    ],
    "bufferViews" : [
        {
            "buffer" : 0,
            "byteLength" : 44664,
            "byteOffset" : 0
        },
        {
            "buffer" : 0,
            "byteLength" : 44664,
            "byteOffset" : 44664
        },
        {
            "buffer" : 0,
            "byteLength" : 29776,
            "byteOffset" : 89328
        },
        {
            "buffer" : 0,
            "byteLength" : 21960,
            "byteOffset" : 119104
        }
    ],
    "buffers" : [
        {
            "byteLength" : 141064,
            "uri" : "data:application/octet-stream;base64,"
        }
    ]
}
