{
    "asset" : {
        "generator" : "Khronos Blender glTF 2.0 I/O",
        "version" : "2.0"
    },
    "scene" : 0,
    "scenes" : [
        {
            "name" : "Scene",
            "nodes" : [
                0,
                1,
                2,
                3
            ]
        }
    ],
    "nodes" : [
        {
            "name" : "NurbsPath",
            "scale" : [
                0.44531095027923584,
                0.44531095027923584,
                0.44531095027923584
            ],
            "translation" : [
                2.777923107147217,
                0.4436010718345642,
                0.3149655759334564
            ]
        },
        {
            "name" : "NurbsPath.001",
            "scale" : [
                0.44531095027923584,
                0.44531095027923584,
                0.44531095027923584
            ],
            "translation" : [
                2.777923107147217,
                0.4436010718345642,
                -0.16359610855579376
            ]
        },
        {
            "name" : "BezierCircle",
            "rotation" : [
                0,
                0,
                -0.7071068286895752,
                0.7071068286895752
            ],
            "scale" : [
                0.07917677611112595,
                0.07917677611112595,
                0.07917677611112595
            ],
            "translation" : [
                1.7913739681243896,
                0.6739001274108887,
                1.852415680885315
            ]
        },
        {
            "mesh" : 0,
            "name" : "Cylinder",
            "rotation" : [
                0,
                0,
                -0.7071068286895752,
                0.7071068286895752
            ],
            "scale" : [
                0.22375474870204926,
                0.22375474870204926,
                0.22375474870204926
            ],
            "translation" : [
                -1.3926204442977905,
                3.8795390129089355,
                0.07111818343400955
            ]
        }
    ],
    "materials" : [
        {
            "name" : "Material",
            "pbrMetallicRoughness" : {
                "baseColorFactor" : [
                    0.800000011920929,
                    0.800000011920929,
                    0.800000011920929,
                    1
                ],
                "metallicFactor" : 0,
                "roughnessFactor" : 0.5
            }
        }
    ],
    "meshes" : [
        {
            "name" : "Cylinder.007",
            "primitives" : [
                {
                    "attributes" : {
                        "POSITION" : 0,
                        "NORMAL" : 1,
                        "TEXCOORD_0" : 2
                    },
                    "indices" : 3,
                    "material" : 0
                }
            ]
        }
    ],
    "accessors" : [
        {
            "bufferView" : 0,
            "componentType" : 5126,
            "count" : 7719,
            "max" : [
                17.22724723815918,
                14.867331504821777,
                2.958773612976074
            ],
            "min" : [
                -1.511973261833191,
                -3.1740241050720215,
                -2.9616622924804688
            ],
            "type" : "VEC3"
        },
        {
            "bufferView" : 1,
            "componentType" : 5126,
            "count" : 7719,
            "type" : "VEC3"
        },
        {
            "bufferView" : 2,
            "componentType" : 5126,
            "count" : 7719,
            "type" : "VEC2"
        },
        {
            "bufferView" : 3,
            "componentType" : 5123,
            "count" : 14124,
            "type" : "SCALAR"
        }
    ],
    "bufferViews" : [
        {
            "buffer" : 0,
            "byteLength" : 92628,
            "byteOffset" : 0
        },
        {
            "buffer" : 0,
            "byteLength" : 92628,
            "byteOffset" : 92628
        },
        {
            "buffer" : 0,
            "byteLength" : 61752,
            "byteOffset" : 185256
        },
        {
            "buffer" : 0,
            "byteLength" : 28248,
            "byteOffset" : 247008
        }
    ],
    "buffers" : [
        {
            "byteLength" : 275256,
            "uri" : "data:application/octet-stream;base64,"
        }
    ]
}
