{
    "asset" : {
        "generator" : "Khronos Blender glTF 2.0 I/O",
        "version" : "2.0"
    },
    "scene" : 0,
    "scenes" : [
        {
            "name" : "Scene",
            "nodes" : [
                0,
                1,
                2,
                3
            ]
        }
    ],
    "nodes" : [
        {
            "mesh" : 0,
            "name" : "base"
        },
        {
            "name" : "NurbsPath",
            "scale" : [
                0.44531095027923584,
                0.44531095027923584,
                0.44531095027923584
            ],
            "translation" : [
                2.777923107147217,
                0.4436010718345642,
                0.3149655759334564
            ]
        },
        {
            "name" : "NurbsPath.001",
            "scale" : [
                0.44531095027923584,
                0.44531095027923584,
                0.44531095027923584
            ],
            "translation" : [
                2.777923107147217,
                0.4436010718345642,
                -0.16359610855579376
            ]
        },
        {
            "name" : "BezierCircle",
            "rotation" : [
                0,
                0,
                -0.7071068286895752,
                0.7071068286895752
            ],
            "scale" : [
                0.07917677611112595,
                0.07917677611112595,
                0.07917677611112595
            ],
            "translation" : [
                1.7913739681243896,
                0.6739001274108887,
                1.852415680885315
            ]
        }
    ],
    "materials" : [
        {
            "name" : "Material",
            "pbrMetallicRoughness" : {
                "baseColorFactor" : [
                    0.800000011920929,
                    0.800000011920929,
                    0.800000011920929,
                    1
                ],
                "metallicFactor" : 0,
                "roughnessFactor" : 0.5
            }
        }
    ],
    "meshes" : [
        {
            "name" : "Cube.009",
            "primitives" : [
                {
                    "attributes" : {
                        "POSITION" : 0,
                        "NORMAL" : 1,
                        "TEXCOORD_0" : 2
                    },
                    "indices" : 3,
                    "material" : 0
                }
            ]
        }
    ],
    "accessors" : [
        {
            "bufferView" : 0,
            "componentType" : 5126,
            "count" : 32120,
            "max" : [
                1.9340159893035889,
                4.217850208282471,
                0.7331578731536865
            ],
            "min" : [
                -2.102823495864868,
                0.024860739707946777,
                -0.591567873954773
            ],
            "type" : "VEC3"
        },
        {
            "bufferView" : 1,
            "componentType" : 5126,
            "count" : 32120,
            "type" : "VEC3"
        },
        {
            "bufferView" : 2,
            "componentType" : 5126,
            "count" : 32120,
            "type" : "VEC2"
        },
        {
            "bufferView" : 3,
            "componentType" : 5123,
            "count" : 86700,
            "type" : "SCALAR"
        }
    ],
    "bufferViews" : [
        {
            "buffer" : 0,
            "byteLength" : 385440,
            "byteOffset" : 0
        },
        {
            "buffer" : 0,
            "byteLength" : 385440,
            "byteOffset" : 385440
        },
        {
            "buffer" : 0,
            "byteLength" : 256960,
            "byteOffset" : 770880
        },
        {
            "buffer" : 0,
            "byteLength" : 173400,
            "byteOffset" : 1027840
        }
    ],
    "buffers" : [
        {
            "byteLength" : 1201240,
            "uri" : "data:application/octet-stream;base64,"
        }
    ]
}
