{
    "asset" : {
        "generator" : "Khronos Blender glTF 2.0 I/O",
        "version" : "2.0"
    },
    "scene" : 0,
    "scenes" : [
        {
            "name" : "Scene",
            "nodes" : [
                0,
                1,
                2,
                3,
                4,
                5,
                6,
                7,
                8,
                9,
                10,
                11,
                12,
                13,
                14,
                15
            ]
        }
    ],
    "nodes" : [
        {
            "mesh" : 0,
            "name" : "base",
            "translation" : [
                0.13992564380168915,
                1.0248607397079468,
                0
            ]
        },
        {
            "mesh" : 1,
            "name" : "base2"
        },
        {
            "mesh" : 2,
            "name" : "Untitled"
        },
        {
            "mesh" : 3,
            "name" : "Untitled.001"
        },
        {
            "mesh" : 4,
            "name" : "Cube.001",
            "translation" : [
                -0.9764785766601562,
                2.694157361984253,
                -0.3918163776397705
            ]
        },
        {
            "mesh" : 5,
            "name" : "Cylinder.001",
            "translation" : [
                0,
                0.10382402688264847,
                0
            ]
        },
        {
            "mesh" : 6,
            "name" : "Cylinder.002",
            "translation" : [
                0,
                0.1055222600698471,
                0
            ]
        },
        {
            "name" : "Empty",
            "rotation" : [
                0.7071068286895752,
                0,
                0,
                0.7071067094802856
            ],
            "scale" : [
                3,
                3,
                3
            ],
            "translation" : [
                -1.0836460590362549,
                5.910685062408447,
                -1.703203558921814
            ]
        },
        {
            "name" : "Empty.001",
            "scale" : [
                3,
                3,
                3
            ],
            "translation" : [
                -1.0902636051177979,
                -0.7897868156433105,
                3.9725987911224365
            ]
        },
        {
            "name" : "Empty.002",
            "rotation" : [
                0.5,
                0.5,
                -0.5000000596046448,
                0.4999999701976776
            ],
            "scale" : [
                3,
                3,
                3
            ],
            "translation" : [
                2.766502618789673,
                5.913963317871094,
                -4.668366432189941
            ]
        },
        {
            "name" : "NurbsPath",
            "scale" : [
                0.44531095027923584,
                0.44531095027923584,
                0.44531095027923584
            ],
            "translation" : [
                2.777923107147217,
                0.4436010718345642,
                0.3149655759334564
            ]
        },
        {
            "name" : "NurbsPath.001",
            "scale" : [
                0.44531095027923584,
                0.44531095027923584,
                0.44531095027923584
            ],
            "translation" : [
                2.777923107147217,
                0.4436010718345642,
                -0.16359610855579376
            ]
        },
        {
            "mesh" : 7,
            "name" : "cable1",
            "rotation" : [
                0,
                0,
                -0.7071068286895752,
                0.7071068286895752
            ],
            "scale" : [
                0.09523186832666397,
                0.09523186832666397,
                0.09523186832666397
            ],
            "translation" : [
                1.15058434009552,
                0.44373786449432373,
                0.3147760033607483
            ]
        },
        {
            "mesh" : 8,
            "name" : "cable2",
            "rotation" : [
                0,
                0,
                -0.7071068286895752,
                0.7071068286895752
            ],
            "scale" : [
                0.09523186832666397,
                0.09523186832666397,
                0.09523186832666397
            ],
            "translation" : [
                1.15058434009552,
                0.44373786449432373,
                -0.16253089904785156
            ]
        },
        {
            "name" : "BezierCircle",
            "rotation" : [
                0,
                0,
                -0.7071068286895752,
                0.7071068286895752
            ],
            "scale" : [
                0.07917677611112595,
                0.07917677611112595,
                0.07917677611112595
            ],
            "translation" : [
                1.7913739681243896,
                0.6739001274108887,
                1.852415680885315
            ]
        },
        {
            "mesh" : 9,
            "name" : "Cylinder"
        }
    ],
    "materials" : [
        {
            "name" : "base",
            "pbrMetallicRoughness" : {
                "baseColorFactor" : [
                    0.8000000715255737,
                    0.4242616891860962,
                    0.011855804361402988,
                    1
                ],
                "metallicFactor" : 0,
                "roughnessFactor" : 0.5
            }
        },
        {
            "name" : "black",
            "pbrMetallicRoughness" : {
                "baseColorFactor" : [
                    0,
                    0,
                    0,
                    1
                ],
                "metallicFactor" : 0,
                "roughnessFactor" : 0.5
            }
        }
    ],
    "meshes" : [
        {
            "name" : "Cube.003",
            "primitives" : [
                {
                    "attributes" : {
                        "POSITION" : 0,
                        "NORMAL" : 1,
                        "TEXCOORD_0" : 2
                    },
                    "indices" : 3,
                    "material" : 0
                }
            ]
        },
        {
            "name" : "Cube.003",
            "primitives" : [
                {
                    "attributes" : {
                        "POSITION" : 4,
                        "NORMAL" : 5,
                        "TEXCOORD_0" : 6
                    },
                    "indices" : 7,
                    "material" : 0
                }
            ]
        },
        {
            "name" : "Cylinder.008",
            "primitives" : [
                {
                    "attributes" : {
                        "POSITION" : 8,
                        "NORMAL" : 9,
                        "TEXCOORD_0" : 10
                    },
                    "indices" : 11,
                    "material" : 0
                }
            ]
        },
        {
            "name" : "Cylinder.008",
            "primitives" : [
                {
                    "attributes" : {
                        "POSITION" : 12,
                        "NORMAL" : 13,
                        "TEXCOORD_0" : 14
                    },
                    "indices" : 15,
                    "material" : 0
                }
            ]
        },
        {
            "name" : "Cube.003",
            "primitives" : [
                {
                    "attributes" : {
                        "POSITION" : 16,
                        "NORMAL" : 17,
                        "TEXCOORD_0" : 18
                    },
                    "indices" : 19,
                    "material" : 0
                }
            ]
        },
        {
            "name" : "Cylinder.008",
            "primitives" : [
                {
                    "attributes" : {
                        "POSITION" : 20,
                        "NORMAL" : 21,
                        "TEXCOORD_0" : 22
                    },
                    "indices" : 23
                }
            ]
        },
        {
            "name" : "Cylinder.008",
            "primitives" : [
                {
                    "attributes" : {
                        "POSITION" : 24,
                        "NORMAL" : 25,
                        "TEXCOORD_0" : 26
                    },
                    "indices" : 27
                }
            ]
        },
        {
            "name" : "Cylinder.008",
            "primitives" : [
                {
                    "attributes" : {
                        "POSITION" : 28,
                        "NORMAL" : 29,
                        "TEXCOORD_0" : 30
                    },
                    "indices" : 31,
                    "material" : 1
                }
            ]
        },
        {
            "name" : "Cylinder.008",
            "primitives" : [
                {
                    "attributes" : {
                        "POSITION" : 32,
                        "NORMAL" : 33,
                        "TEXCOORD_0" : 34
                    },
                    "indices" : 35,
                    "material" : 1
                }
            ]
        },
        {
            "name" : "Cylinder.008",
            "primitives" : [
                {
                    "attributes" : {
                        "POSITION" : 36,
                        "NORMAL" : 37,
                        "TEXCOORD_0" : 38
                    },
                    "indices" : 39,
                    "material" : 1
                }
            ]
        }
    ],
    "accessors" : [
        {
            "bufferView" : 0,
            "componentType" : 5126,
            "count" : 1362,
            "max" : [
                1.0807315111160278,
                0.1716659665107727,
                0.733157753944397
            ],
            "min" : [
                -0.880193293094635,
                -1,
                -0.5915679931640625
            ],
            "type" : "VEC3"
        },
        {
            "bufferView" : 1,
            "componentType" : 5126,
            "count" : 1362,
            "type" : "VEC3"
        },
        {
            "bufferView" : 2,
            "componentType" : 5126,
            "count" : 1362,
            "type" : "VEC2"
        },
        {
            "bufferView" : 3,
            "componentType" : 5123,
            "count" : 2766,
            "type" : "SCALAR"
        },
        {
            "bufferView" : 4,
            "componentType" : 5126,
            "count" : 3031,
            "max" : [
                0.38641297817230225,
                2.4325461387634277,
                0.5097306966781616
            ],
            "min" : [
                -0.7063103914260864,
                1.1471226215362549,
                -0.3626418113708496
            ],
            "type" : "VEC3"
        },
        {
            "bufferView" : 5,
            "componentType" : 5126,
            "count" : 3031,
            "type" : "VEC3"
        },
        {
            "bufferView" : 6,
            "componentType" : 5126,
            "count" : 3031,
            "type" : "VEC2"
        },
        {
            "bufferView" : 7,
            "componentType" : 5123,
            "count" : 8643,
            "type" : "SCALAR"
        },
        {
            "bufferView" : 8,
            "componentType" : 5126,
            "count" : 4098,
            "max" : [
                0.3240402936935425,
                2.5777058601379395,
                0.47100916504859924
            ],
            "min" : [
                -0.5852968692779541,
                1.6683688163757324,
                -0.34073927998542786
            ],
            "type" : "VEC3"
        },
        {
            "bufferView" : 9,
            "componentType" : 5126,
            "count" : 4098,
            "type" : "VEC3"
        },
        {
            "bufferView" : 10,
            "componentType" : 5126,
            "count" : 4098,
            "type" : "VEC2"
        },
        {
            "bufferView" : 11,
            "componentType" : 5123,
            "count" : 10218,
            "type" : "SCALAR"
        },
        {
            "bufferView" : 12,
            "componentType" : 5126,
            "count" : 7565,
            "max" : [
                0.20053954422473907,
                3.6589479446411133,
                0.3862285614013672
            ],
            "min" : [
                -1.7810674905776978,
                2.996612548828125,
                0.01709975115954876
            ],
            "type" : "VEC3"
        },
        {
            "bufferView" : 13,
            "componentType" : 5126,
            "count" : 7565,
            "type" : "VEC3"
        },
        {
            "bufferView" : 14,
            "componentType" : 5126,
            "count" : 7565,
            "type" : "VEC2"
        },
        {
            "bufferView" : 15,
            "componentType" : 5123,
            "count" : 19026,
            "type" : "SCALAR"
        },
        {
            "bufferView" : 16,
            "componentType" : 5126,
            "count" : 596,
            "max" : [
                1.3047022819519043,
                1,
                1.0266045331954956
            ],
            "min" : [
                0.3881339132785797,
                -1.0307382345199585,
                0.7532907724380493
            ],
            "type" : "VEC3"
        },
        {
            "bufferView" : 17,
            "componentType" : 5126,
            "count" : 596,
            "type" : "VEC3"
        },
        {
            "bufferView" : 18,
            "componentType" : 5126,
            "count" : 596,
            "type" : "VEC2"
        },
        {
            "bufferView" : 19,
            "componentType" : 5123,
            "count" : 1098,
            "type" : "SCALAR"
        },
        {
            "bufferView" : 20,
            "componentType" : 5126,
            "count" : 386,
            "max" : [
                0.8316574096679688,
                0.1620355099439621,
                0.6862286329269409
            ],
            "min" : [
                0.7796093821525574,
                0.08022844791412354,
                0.6341806650161743
            ],
            "type" : "VEC3"
        },
        {
            "bufferView" : 21,
            "componentType" : 5126,
            "count" : 386,
            "type" : "VEC3"
        },
        {
            "bufferView" : 22,
            "componentType" : 5126,
            "count" : 386,
            "type" : "VEC2"
        },
        {
            "bufferView" : 23,
            "componentType" : 5123,
            "count" : 756,
            "type" : "SCALAR"
        },
        {
            "bufferView" : 24,
            "componentType" : 5126,
            "count" : 386,
            "max" : [
                0.8316574096679688,
                0.16219457983970642,
                -0.4745159149169922
            ],
            "min" : [
                0.7796093821525574,
                0.08038751035928726,
                -0.5265638828277588
            ],
            "type" : "VEC3"
        },
        {
            "bufferView" : 25,
            "componentType" : 5126,
            "count" : 386,
            "type" : "VEC3"
        },
        {
            "bufferView" : 26,
            "componentType" : 5126,
            "count" : 386,
            "type" : "VEC2"
        },
        {
            "bufferView" : 27,
            "componentType" : 5123,
            "count" : 756,
            "type" : "SCALAR"
        },
        {
            "bufferView" : 28,
            "componentType" : 5126,
            "count" : 1590,
            "max" : [
                1.2480616569519043,
                8.226570129394531,
                1.2480617761611938
            ],
            "min" : [
                -1.2480615377426147,
                -1,
                -1.2480612993240356
            ],
            "type" : "VEC3"
        },
        {
            "bufferView" : 29,
            "componentType" : 5126,
            "count" : 1590,
            "type" : "VEC3"
        },
        {
            "bufferView" : 30,
            "componentType" : 5126,
            "count" : 1590,
            "type" : "VEC2"
        },
        {
            "bufferView" : 31,
            "componentType" : 5123,
            "count" : 2580,
            "type" : "SCALAR"
        },
        {
            "bufferView" : 32,
            "componentType" : 5126,
            "count" : 1590,
            "max" : [
                1.2480616569519043,
                8.226570129394531,
                1.2480617761611938
            ],
            "min" : [
                -1.2480615377426147,
                -1,
                -1.2480612993240356
            ],
            "type" : "VEC3"
        },
        {
            "bufferView" : 33,
            "componentType" : 5126,
            "count" : 1590,
            "type" : "VEC3"
        },
        {
            "bufferView" : 34,
            "componentType" : 5126,
            "count" : 1590,
            "type" : "VEC2"
        },
        {
            "bufferView" : 35,
            "componentType" : 5123,
            "count" : 2580,
            "type" : "SCALAR"
        },
        {
            "bufferView" : 36,
            "componentType" : 5126,
            "count" : 2915,
            "max" : [
                -1.6349983215332031,
                3.6128766536712646,
                0.5064330697059631
            ],
            "min" : [
                -2.07444167137146,
                3.02839732170105,
                -0.07804623246192932
            ],
            "type" : "VEC3"
        },
        {
            "bufferView" : 37,
            "componentType" : 5126,
            "count" : 2915,
            "type" : "VEC3"
        },
        {
            "bufferView" : 38,
            "componentType" : 5126,
            "count" : 2915,
            "type" : "VEC2"
        },
        {
            "bufferView" : 39,
            "componentType" : 5123,
            "count" : 7368,
            "type" : "SCALAR"
        }
    ],
    "bufferViews" : [
        {
            "buffer" : 0,
            "byteLength" : 16344,
            "byteOffset" : 0
        },
        {
            "buffer" : 0,
            "byteLength" : 16344,
            "byteOffset" : 16344
        },
        {
            "buffer" : 0,
            "byteLength" : 10896,
            "byteOffset" : 32688
        },
        {
            "buffer" : 0,
            "byteLength" : 5532,
            "byteOffset" : 43584
        },
        {
            "buffer" : 0,
            "byteLength" : 36372,
            "byteOffset" : 49116
        },
        {
            "buffer" : 0,
            "byteLength" : 36372,
            "byteOffset" : 85488
        },
        {
            "buffer" : 0,
            "byteLength" : 24248,
            "byteOffset" : 121860
        },
        {
            "buffer" : 0,
            "byteLength" : 17286,
            "byteOffset" : 146108
        },
        {
            "buffer" : 0,
            "byteLength" : 49176,
            "byteOffset" : 163396
        },
        {
            "buffer" : 0,
            "byteLength" : 49176,
            "byteOffset" : 212572
        },
        {
            "buffer" : 0,
            "byteLength" : 32784,
            "byteOffset" : 261748
        },
        {
            "buffer" : 0,
            "byteLength" : 20436,
            "byteOffset" : 294532
        },
        {
            "buffer" : 0,
            "byteLength" : 90780,
            "byteOffset" : 314968
        },
        {
            "buffer" : 0,
            "byteLength" : 90780,
            "byteOffset" : 405748
        },
        {
            "buffer" : 0,
            "byteLength" : 60520,
            "byteOffset" : 496528
        },
        {
            "buffer" : 0,
            "byteLength" : 38052,
            "byteOffset" : 557048
        },
        {
            "buffer" : 0,
            "byteLength" : 7152,
            "byteOffset" : 595100
        },
        {
            "buffer" : 0,
            "byteLength" : 7152,
            "byteOffset" : 602252
        },
        {
            "buffer" : 0,
            "byteLength" : 4768,
            "byteOffset" : 609404
        },
        {
            "buffer" : 0,
            "byteLength" : 2196,
            "byteOffset" : 614172
        },
        {
            "buffer" : 0,
            "byteLength" : 4632,
            "byteOffset" : 616368
        },
        {
            "buffer" : 0,
            "byteLength" : 4632,
            "byteOffset" : 621000
        },
        {
            "buffer" : 0,
            "byteLength" : 3088,
            "byteOffset" : 625632
        },
        {
            "buffer" : 0,
            "byteLength" : 1512,
            "byteOffset" : 628720
        },
        {
            "buffer" : 0,
            "byteLength" : 4632,
            "byteOffset" : 630232
        },
        {
            "buffer" : 0,
            "byteLength" : 4632,
            "byteOffset" : 634864
        },
        {
            "buffer" : 0,
            "byteLength" : 3088,
            "byteOffset" : 639496
        },
        {
            "buffer" : 0,
            "byteLength" : 1512,
            "byteOffset" : 642584
        },
        {
            "buffer" : 0,
            "byteLength" : 19080,
            "byteOffset" : 644096
        },
        {
            "buffer" : 0,
            "byteLength" : 19080,
            "byteOffset" : 663176
        },
        {
            "buffer" : 0,
            "byteLength" : 12720,
            "byteOffset" : 682256
        },
        {
            "buffer" : 0,
            "byteLength" : 5160,
            "byteOffset" : 694976
        },
        {
            "buffer" : 0,
            "byteLength" : 19080,
            "byteOffset" : 700136
        },
        {
            "buffer" : 0,
            "byteLength" : 19080,
            "byteOffset" : 719216
        },
        {
            "buffer" : 0,
            "byteLength" : 12720,
            "byteOffset" : 738296
        },
        {
            "buffer" : 0,
            "byteLength" : 5160,
            "byteOffset" : 751016
        },
        {
            "buffer" : 0,
            "byteLength" : 34980,
            "byteOffset" : 756176
        },
        {
            "buffer" : 0,
            "byteLength" : 34980,
            "byteOffset" : 791156
        },
        {
            "buffer" : 0,
            "byteLength" : 23320,
            "byteOffset" : 826136
        },
        {
            "buffer" : 0,
            "byteLength" : 14736,
            "byteOffset" : 849456
        }
    ],
    "buffers" : [
        {
            "byteLength" : 864192,
            "uri" : "data:application/octet-stream;base64,"
        }
    ]
}
