{
    "asset" : {
        "generator" : "Khronos Blender glTF 2.0 I/O",
        "version" : "2.0"
    },
    "scene" : 0,
    "scenes" : [
        {
            "name" : "Scene",
            "nodes" : [
                0,
                5
            ]
        }
    ],
    "nodes" : [
        {
            "mesh" : 0,
            "name" : "Cylinder.003"
        },
        {
            "name" : "Bone.001",
            "rotation" : [
                0.00018636597087606788,
                2.1030803054600256e-06,
                -0.0027192917186766863,
                0.9999963045120239
            ],
            "translation" : [
                -0.022174866870045662,
                8.111632347106934,
                0.00028015347197651863
            ]
        },
        {
            "children" : [
                1
            ],
            "name" : "Bone",
            "rotation" : [
                5.813507897300951e-08,
                7.061390761009534e-08,
                -0.706956684589386,
                0.7072569131851196
            ],
            "scale" : [
                1,
                1.0000001192092896,
                1
            ],
            "translation" : [
                -0.015080087818205357,
                0.04343065246939659,
                -1.0720434188842773
            ]
        },
        {
            "mesh" : 1,
            "name" : "Cylinder",
            "skin" : 0,
            "translation" : [
                -0.014167547225952148,
                -3.939207077026367,
                -1.0704238414764404
            ]
        },
        {
            "mesh" : 2,
            "name" : "Cylinder.001",
            "skin" : 1,
            "translation" : [
                -0.014167547225952148,
                -3.939207077026367,
                -1.0704238414764404
            ]
        },
        {
            "children" : [
                3,
                4,
                2
            ],
            "name" : "Armature",
            "translation" : [
                0.014167547225952148,
                3.939207077026367,
                1.0704238414764404
            ]
        }
    ],
    "animations" : [
        {
            "channels" : [
                {
                    "sampler" : 0,
                    "target" : {
                        "node" : 2,
                        "path" : "rotation"
                    }
                },
                {
                    "sampler" : 1,
                    "target" : {
                        "node" : 1,
                        "path" : "rotation"
                    }
                }
            ],
            "name" : "Action",
            "samplers" : [
                {
                    "input" : 34,
                    "interpolation" : "CUBICSPLINE",
                    "output" : 35
                },
                {
                    "input" : 36,
                    "interpolation" : "CUBICSPLINE",
                    "output" : 37
                }
            ]
        }
    ],
    "materials" : [
        {
            "name" : "black",
            "pbrMetallicRoughness" : {
                "baseColorFactor" : [
                    0,
                    0,
                    0,
                    1
                ],
                "metallicFactor" : 0.5,
                "roughnessFactor" : 0.5
            }
        },
        {
            "name" : "red",
            "pbrMetallicRoughness" : {
                "baseColorFactor" : [
                    1,
                    0,
                    0.0017185329925268888,
                    1
                ],
                "metallicFactor" : 0.5,
                "roughnessFactor" : 0.5
            }
        },
        {
            "name" : "Material",
            "pbrMetallicRoughness" : {
                "baseColorFactor" : [
                    0.003716127946972847,
                    0,
                    0.8000000715255737,
                    1
                ],
                "metallicFactor" : 0.5,
                "roughnessFactor" : 0.5
            }
        }
    ],
    "meshes" : [
        {
            "name" : "Cylinder.010",
            "primitives" : [
                {
                    "attributes" : {
                        "POSITION" : 0,
                        "NORMAL" : 1,
                        "TEXCOORD_0" : 2
                    },
                    "indices" : 3,
                    "material" : 0
                },
                {
                    "attributes" : {
                        "POSITION" : 4,
                        "NORMAL" : 5,
                        "TEXCOORD_0" : 6
                    },
                    "indices" : 7,
                    "material" : 1
                }
            ]
        },
        {
            "name" : "Cylinder.010",
            "primitives" : [
                {
                    "attributes" : {
                        "POSITION" : 8,
                        "NORMAL" : 9,
                        "TEXCOORD_0" : 10,
                        "JOINTS_0" : 11,
                        "WEIGHTS_0" : 12
                    },
                    "indices" : 13,
                    "material" : 2
                },
                {
                    "attributes" : {
                        "POSITION" : 14,
                        "NORMAL" : 15,
                        "TEXCOORD_0" : 16,
                        "JOINTS_0" : 17,
                        "WEIGHTS_0" : 18
                    },
                    "indices" : 19,
                    "material" : 1
                }
            ]
        },
        {
            "name" : "Cylinder.011",
            "primitives" : [
                {
                    "attributes" : {
                        "POSITION" : 21,
                        "NORMAL" : 22,
                        "TEXCOORD_0" : 23,
                        "JOINTS_0" : 24,
                        "WEIGHTS_0" : 25
                    },
                    "indices" : 26,
                    "material" : 2
                },
                {
                    "attributes" : {
                        "POSITION" : 27,
                        "NORMAL" : 28,
                        "TEXCOORD_0" : 29,
                        "JOINTS_0" : 30,
                        "WEIGHTS_0" : 31
                    },
                    "indices" : 32,
                    "material" : 1
                }
            ]
        }
    ],
    "skins" : [
        {
            "inverseBindMatrices" : 20,
            "joints" : [
                2,
                1
            ],
            "name" : "Armature"
        },
        {
            "inverseBindMatrices" : 33,
            "joints" : [
                2,
                1
            ],
            "name" : "Armature"
        }
    ],
    "accessors" : [
        {
            "bufferView" : 0,
            "componentType" : 5126,
            "count" : 5883,
            "max" : [
                1.665405035018921,
                6.1081390380859375,
                2.4219915866851807
            ],
            "min" : [
                -6.698045253753662,
                0.0015588998794555664,
                -2.4219911098480225
            ],
            "type" : "VEC3"
        },
        {
            "bufferView" : 1,
            "componentType" : 5126,
            "count" : 5883,
            "type" : "VEC3"
        },
        {
            "bufferView" : 2,
            "componentType" : 5126,
            "count" : 5883,
            "type" : "VEC2"
        },
        {
            "bufferView" : 3,
            "componentType" : 5123,
            "count" : 17568,
            "type" : "SCALAR"
        },
        {
            "bufferView" : 4,
            "componentType" : 5126,
            "count" : 801,
            "max" : [
                0.3045201301574707,
                5.540582180023193,
                1.63677179813385
            ],
            "min" : [
                -5.485337257385254,
                1.971571922302246,
                -1.6367710828781128
            ],
            "type" : "VEC3"
        },
        {
            "bufferView" : 5,
            "componentType" : 5126,
            "count" : 801,
            "type" : "VEC3"
        },
        {
            "bufferView" : 6,
            "componentType" : 5126,
            "count" : 801,
            "type" : "VEC2"
        },
        {
            "bufferView" : 7,
            "componentType" : 5123,
            "count" : 2088,
            "type" : "SCALAR"
        },
        {
            "bufferView" : 8,
            "componentType" : 5126,
            "count" : 580,
            "max" : [
                1,
                5.00700569152832,
                1
            ],
            "min" : [
                -1,
                3.0070056915283203,
                -1
            ],
            "type" : "VEC3"
        },
        {
            "bufferView" : 9,
            "componentType" : 5126,
            "count" : 580,
            "type" : "VEC3"
        },
        {
            "bufferView" : 10,
            "componentType" : 5126,
            "count" : 580,
            "type" : "VEC2"
        },
        {
            "bufferView" : 11,
            "componentType" : 5123,
            "count" : 580,
            "type" : "VEC4"
        },
        {
            "bufferView" : 12,
            "componentType" : 5126,
            "count" : 580,
            "type" : "VEC4"
        },
        {
            "bufferView" : 13,
            "componentType" : 5123,
            "count" : 1524,
            "type" : "SCALAR"
        },
        {
            "bufferView" : 14,
            "componentType" : 5126,
            "count" : 542,
            "max" : [
                7.250247478485107,
                4.52469539642334,
                0.5210570096969604
            ],
            "min" : [
                0.865370512008667,
                3.4814417362213135,
                -0.521626353263855
            ],
            "type" : "VEC3"
        },
        {
            "bufferView" : 15,
            "componentType" : 5126,
            "count" : 542,
            "type" : "VEC3"
        },
        {
            "bufferView" : 16,
            "componentType" : 5126,
            "count" : 542,
            "type" : "VEC2"
        },
        {
            "bufferView" : 17,
            "componentType" : 5123,
            "count" : 542,
            "type" : "VEC4"
        },
        {
            "bufferView" : 18,
            "componentType" : 5126,
            "count" : 542,
            "type" : "VEC4"
        },
        {
            "bufferView" : 19,
            "componentType" : 5123,
            "count" : 1620,
            "type" : "SCALAR"
        },
        {
            "bufferView" : 20,
            "componentType" : 5126,
            "count" : 2,
            "type" : "MAT4"
        },
        {
            "bufferView" : 21,
            "componentType" : 5126,
            "count" : 592,
            "max" : [
                9.112090110778809,
                5.00700569152832,
                1
            ],
            "min" : [
                7.112090110778809,
                3.0070056915283203,
                -1
            ],
            "type" : "VEC3"
        },
        {
            "bufferView" : 22,
            "componentType" : 5126,
            "count" : 592,
            "type" : "VEC3"
        },
        {
            "bufferView" : 23,
            "componentType" : 5126,
            "count" : 592,
            "type" : "VEC2"
        },
        {
            "bufferView" : 24,
            "componentType" : 5123,
            "count" : 592,
            "type" : "VEC4"
        },
        {
            "bufferView" : 25,
            "componentType" : 5126,
            "count" : 592,
            "type" : "VEC4"
        },
        {
            "bufferView" : 26,
            "componentType" : 5123,
            "count" : 1524,
            "type" : "SCALAR"
        },
        {
            "bufferView" : 27,
            "componentType" : 5126,
            "count" : 548,
            "max" : [
                15.780391693115234,
                4.524438381195068,
                0.5210570096969604
            ],
            "min" : [
                8.973370552062988,
                3.481996774673462,
                -0.5210559368133545
            ],
            "type" : "VEC3"
        },
        {
            "bufferView" : 28,
            "componentType" : 5126,
            "count" : 548,
            "type" : "VEC3"
        },
        {
            "bufferView" : 29,
            "componentType" : 5126,
            "count" : 548,
            "type" : "VEC2"
        },
        {
            "bufferView" : 30,
            "componentType" : 5123,
            "count" : 548,
            "type" : "VEC4"
        },
        {
            "bufferView" : 31,
            "componentType" : 5126,
            "count" : 548,
            "type" : "VEC4"
        },
        {
            "bufferView" : 32,
            "componentType" : 5123,
            "count" : 1524,
            "type" : "SCALAR"
        },
        {
            "bufferView" : 33,
            "componentType" : 5126,
            "count" : 2,
            "type" : "MAT4"
        },
        {
            "bufferView" : 34,
            "componentType" : 5126,
            "count" : 8,
            "max" : [
                5.833333333333333
            ],
            "min" : [
                0.041666666666666664
            ],
            "type" : "SCALAR"
        },
        {
            "bufferView" : 35,
            "componentType" : 5126,
            "count" : 24,
            "type" : "VEC4"
        },
        {
            "bufferView" : 36,
            "componentType" : 5126,
            "count" : 8,
            "max" : [
                5.833333333333333
            ],
            "min" : [
                0.041666666666666664
            ],
            "type" : "SCALAR"
        },
        {
            "bufferView" : 37,
            "componentType" : 5126,
            "count" : 24,
            "type" : "VEC4"
        }
    ],
    "bufferViews" : [
        {
            "buffer" : 0,
            "byteLength" : 70596,
            "byteOffset" : 0
        },
        {
            "buffer" : 0,
            "byteLength" : 70596,
            "byteOffset" : 70596
        },
        {
            "buffer" : 0,
            "byteLength" : 47064,
            "byteOffset" : 141192
        },
        {
            "buffer" : 0,
            "byteLength" : 35136,
            "byteOffset" : 188256
        },
        {
            "buffer" : 0,
            "byteLength" : 9612,
            "byteOffset" : 223392
        },
        {
            "buffer" : 0,
            "byteLength" : 9612,
            "byteOffset" : 233004
        },
        {
            "buffer" : 0,
            "byteLength" : 6408,
            "byteOffset" : 242616
        },
        {
            "buffer" : 0,
            "byteLength" : 4176,
            "byteOffset" : 249024
        },
        {
            "buffer" : 0,
            "byteLength" : 6960,
            "byteOffset" : 253200
        },
        {
            "buffer" : 0,
            "byteLength" : 6960,
            "byteOffset" : 260160
        },
        {
            "buffer" : 0,
            "byteLength" : 4640,
            "byteOffset" : 267120
        },
        {
            "buffer" : 0,
            "byteLength" : 4640,
            "byteOffset" : 271760
        },
        {
            "buffer" : 0,
            "byteLength" : 9280,
            "byteOffset" : 276400
        },
        {
            "buffer" : 0,
            "byteLength" : 3048,
            "byteOffset" : 285680
        },
        {
            "buffer" : 0,
            "byteLength" : 6504,
            "byteOffset" : 288728
        },
        {
            "buffer" : 0,
            "byteLength" : 6504,
            "byteOffset" : 295232
        },
        {
            "buffer" : 0,
            "byteLength" : 4336,
            "byteOffset" : 301736
        },
        {
            "buffer" : 0,
            "byteLength" : 4336,
            "byteOffset" : 306072
        },
        {
            "buffer" : 0,
            "byteLength" : 8672,
            "byteOffset" : 310408
        },
        {
            "buffer" : 0,
            "byteLength" : 3240,
            "byteOffset" : 319080
        },
        {
            "buffer" : 0,
            "byteLength" : 128,
            "byteOffset" : 322320
        },
        {
            "buffer" : 0,
            "byteLength" : 7104,
            "byteOffset" : 322448
        },
        {
            "buffer" : 0,
            "byteLength" : 7104,
            "byteOffset" : 329552
        },
        {
            "buffer" : 0,
            "byteLength" : 4736,
            "byteOffset" : 336656
        },
        {
            "buffer" : 0,
            "byteLength" : 4736,
            "byteOffset" : 341392
        },
        {
            "buffer" : 0,
            "byteLength" : 9472,
            "byteOffset" : 346128
        },
        {
            "buffer" : 0,
            "byteLength" : 3048,
            "byteOffset" : 355600
        },
        {
            "buffer" : 0,
            "byteLength" : 6576,
            "byteOffset" : 358648
        },
        {
            "buffer" : 0,
            "byteLength" : 6576,
            "byteOffset" : 365224
        },
        {
            "buffer" : 0,
            "byteLength" : 4384,
            "byteOffset" : 371800
        },
        {
            "buffer" : 0,
            "byteLength" : 4384,
            "byteOffset" : 376184
        },
        {
            "buffer" : 0,
            "byteLength" : 8768,
            "byteOffset" : 380568
        },
        {
            "buffer" : 0,
            "byteLength" : 3048,
            "byteOffset" : 389336
        },
        {
            "buffer" : 0,
            "byteLength" : 128,
            "byteOffset" : 392384
        },
        {
            "buffer" : 0,
            "byteLength" : 32,
            "byteOffset" : 392512
        },
        {
            "buffer" : 0,
            "byteLength" : 384,
            "byteOffset" : 392544
        },
        {
            "buffer" : 0,
            "byteLength" : 32,
            "byteOffset" : 392928
        },
        {
            "buffer" : 0,
            "byteLength" : 384,
            "byteOffset" : 392960
        }
    ],
    "buffers" : [
        {
            "byteLength" : 393344,
            "uri" : "data:application/octet-stream;base64,"
        }
    ]
}
