{
    "asset" : {
        "generator" : "Khronos Blender glTF 2.0 I/O",
        "version" : "2.0"
    },
    "scene" : 0,
    "scenes" : [
        {
            "name" : "Scene",
            "nodes" : [
                0,
                1,
                2,
                3,
                4,
                5,
                6,
                7
            ]
        }
    ],
    "nodes" : [
        {
            "name" : "Light",
            "rotation" : [
                0.16907575726509094,
                0.7558802962303162,
                -0.27217137813568115,
                0.570947527885437
            ],
            "translation" : [
                4.076245307922363,
                5.903861999511719,
                -1.0054539442062378
            ]
        },
        {
            "name" : "Camera",
            "rotation" : [
                0.483536034822464,
                0.33687159419059753,
                -0.20870360732078552,
                0.7804827094078064
            ],
            "translation" : [
                7.358891487121582,
                4.958309173583984,
                6.925790786743164
            ]
        },
        {
            "mesh" : 0,
            "name" : "Cylinder",
            "translation" : [
                -0.4995364546775818,
                1.7561827898025513,
                0
            ]
        },
        {
            "name" : "Text",
            "rotation" : [
                0.7071068286895752,
                0,
                0,
                0.7071068286895752
            ],
            "scale" : [
                0.19324807822704315,
                0.19324807822704315,
                0.19324807822704315
            ],
            "translation" : [
                -0.5198161005973816,
                0.885813295841217,
                0.42451614141464233
            ]
        },
        {
            "name" : "front",
            "rotation" : [
                0.7071068286895752,
                0,
                0,
                0.7071067094802856
            ],
            "translation" : [
                1.362674355506897,
                -0.017703257501125336,
                0
            ]
        },
        {
            "name" : "side",
            "rotation" : [
                0.5,
                0.5,
                -0.5000000596046448,
                0.4999999701976776
            ],
            "translation" : [
                0,
                -0.012684285640716553,
                1.9610989093780518
            ]
        },
        {
            "name" : "top",
            "translation" : [
                1.3695751428604126,
                0,
                1.2515649795532227
            ]
        },
        {
            "name" : "top.001",
            "translation" : [
                1.3695751428604126,
                0,
                1.2515649795532227
            ]
        }
    ],
    "materials" : [
        {
            "name" : "white",
            "pbrMetallicRoughness" : {
                "baseColorFactor" : [
                    0.800000011920929,
                    0.800000011920929,
                    0.800000011920929,
                    1
                ],
                "metallicFactor" : 0,
                "roughnessFactor" : 0.5
            }
        },
        {
            "name" : "Material",
            "pbrMetallicRoughness" : {
                "baseColorFactor" : [
                    0,
                    0.0529475063085556,
                    0.5173336267471313,
                    1
                ],
                "metallicFactor" : 0,
                "roughnessFactor" : 0.5
            }
        },
        {
            "name" : "logo",
            "pbrMetallicRoughness" : {
                "baseColorFactor" : [
                    0.9113937616348267,
                    0.06996104121208191,
                    0.08897067606449127,
                    1
                ],
                "metallicFactor" : 0,
                "roughnessFactor" : 0.5
            }
        }
    ],
    "meshes" : [
        {
            "name" : "Cylinder.004",
            "primitives" : [
                {
                    "attributes" : {
                        "POSITION" : 0,
                        "NORMAL" : 1,
                        "TEXCOORD_0" : 2
                    },
                    "indices" : 3,
                    "material" : 0
                },
                {
                    "attributes" : {
                        "POSITION" : 4,
                        "NORMAL" : 5,
                        "TEXCOORD_0" : 6
                    },
                    "indices" : 7,
                    "material" : 1
                },
                {
                    "attributes" : {
                        "POSITION" : 8,
                        "NORMAL" : 9,
                        "TEXCOORD_0" : 10
                    },
                    "indices" : 11,
                    "material" : 2
                }
            ]
        }
    ],
    "accessors" : [
        {
            "bufferView" : 0,
            "componentType" : 5126,
            "count" : 2928,
            "max" : [
                0.6811942458152771,
                0.3580779731273651,
                0.3990830183029175
            ],
            "min" : [
                -0.3400864005088806,
                -0.22193408012390137,
                -0.41517174243927
            ],
            "type" : "VEC3"
        },
        {
            "bufferView" : 1,
            "componentType" : 5126,
            "count" : 2928,
            "type" : "VEC3"
        },
        {
            "bufferView" : 2,
            "componentType" : 5126,
            "count" : 2928,
            "type" : "VEC2"
        },
        {
            "bufferView" : 3,
            "componentType" : 5123,
            "count" : 6957,
            "type" : "SCALAR"
        },
        {
            "bufferView" : 4,
            "componentType" : 5126,
            "count" : 2337,
            "max" : [
                1.554215669631958,
                -0.15263795852661133,
                0.40249884128570557
            ],
            "min" : [
                -0.676133394241333,
                -1.7464872598648071,
                -0.4175734221935272
            ],
            "type" : "VEC3"
        },
        {
            "bufferView" : 5,
            "componentType" : 5126,
            "count" : 2337,
            "type" : "VEC3"
        },
        {
            "bufferView" : 6,
            "componentType" : 5126,
            "count" : 2337,
            "type" : "VEC2"
        },
        {
            "bufferView" : 7,
            "componentType" : 5123,
            "count" : 6246,
            "type" : "SCALAR"
        },
        {
            "bufferView" : 8,
            "componentType" : 5126,
            "count" : 642,
            "max" : [
                1.036123514175415,
                -0.5563982129096985,
                0.4146542549133301
            ],
            "min" : [
                -0.17809250950813293,
                -1.44857656955719,
                0.3558300733566284
            ],
            "type" : "VEC3"
        },
        {
            "bufferView" : 9,
            "componentType" : 5126,
            "count" : 642,
            "type" : "VEC3"
        },
        {
            "bufferView" : 10,
            "componentType" : 5126,
            "count" : 642,
            "type" : "VEC2"
        },
        {
            "bufferView" : 11,
            "componentType" : 5123,
            "count" : 1716,
            "type" : "SCALAR"
        }
    ],
    "bufferViews" : [
        {
            "buffer" : 0,
            "byteLength" : 35136,
            "byteOffset" : 0
        },
        {
            "buffer" : 0,
            "byteLength" : 35136,
            "byteOffset" : 35136
        },
        {
            "buffer" : 0,
            "byteLength" : 23424,
            "byteOffset" : 70272
        },
        {
            "buffer" : 0,
            "byteLength" : 13914,
            "byteOffset" : 93696
        },
        {
            "buffer" : 0,
            "byteLength" : 28044,
            "byteOffset" : 107612
        },
        {
            "buffer" : 0,
            "byteLength" : 28044,
            "byteOffset" : 135656
        },
        {
            "buffer" : 0,
            "byteLength" : 18696,
            "byteOffset" : 163700
        },
        {
            "buffer" : 0,
            "byteLength" : 12492,
            "byteOffset" : 182396
        },
        {
            "buffer" : 0,
            "byteLength" : 7704,
            "byteOffset" : 194888
        },
        {
            "buffer" : 0,
            "byteLength" : 7704,
            "byteOffset" : 202592
        },
        {
            "buffer" : 0,
            "byteLength" : 5136,
            "byteOffset" : 210296
        },
        {
            "buffer" : 0,
            "byteLength" : 3432,
            "byteOffset" : 215432
        }
    ],
    "buffers" : [
        {
            "byteLength" : 218864,
            "uri" : "data:application/octet-stream;base64,"
        }
    ]
}
