{
    "asset" : {
        "generator" : "Khronos Blender glTF 2.0 I/O",
        "version" : "2.0"
    },
    "scene" : 0,
    "scenes" : [
        {
            "name" : "Scene",
            "nodes" : [
                0,
                5
            ]
        }
    ],
    "nodes" : [
        {
            "mesh" : 0,
            "name" : "Cylinder"
        },
        {
            "name" : "Bone.001",
            "rotation" : [
                3.514045943120436e-08,
                -1.341787765340996e-07,
                -0.7067193388938904,
                0.7074940800666809
            ],
            "translation" : [
                -0.3859785497188568,
                5.843891143798828,
                1.4050379991531372
            ]
        },
        {
            "children" : [
                1
            ],
            "name" : "Bone",
            "rotation" : [
                0,
                1.1920928955078125e-07,
                0,
                1
            ],
            "translation" : [
                0,
                0.3323342800140381,
                0
            ]
        },
        {
            "mesh" : 1,
            "name" : "Cube",
            "skin" : 0
        },
        {
            "mesh" : 2,
            "name" : "Cube.001",
            "skin" : 1
        },
        {
            "children" : [
                3,
                4,
                2
            ],
            "name" : "Armature"
        }
    ],
    "animations" : [
        {
            "channels" : [
                {
                    "sampler" : 0,
                    "target" : {
                        "node" : 2,
                        "path" : "rotation"
                    }
                },
                {
                    "sampler" : 1,
                    "target" : {
                        "node" : 1,
                        "path" : "rotation"
                    }
                }
            ],
            "name" : "action_1",
            "samplers" : [
                {
                    "input" : 18,
                    "interpolation" : "CUBICSPLINE",
                    "output" : 19
                },
                {
                    "input" : 20,
                    "interpolation" : "CUBICSPLINE",
                    "output" : 21
                }
            ]
        }
    ],
    "materials" : [
        {
            "name" : "black",
            "pbrMetallicRoughness" : {
                "baseColorFactor" : [
                    0,
                    0,
                    0,
                    1
                ],
                "metallicFactor" : 0.40909090638160706,
                "roughnessFactor" : 0.5
            }
        },
        {
            "name" : "blue",
            "pbrMetallicRoughness" : {
                "baseColorFactor" : [
                    0.0026178769767284393,
                    0.0035736029967665672,
                    0.8000000715255737,
                    1
                ],
                "metallicFactor" : 0.4636363685131073,
                "roughnessFactor" : 0.5
            }
        },
        {
            "name" : "red",
            "pbrMetallicRoughness" : {
                "baseColorFactor" : [
                    0.8000000715255737,
                    0,
                    0.009557452984154224,
                    1
                ],
                "metallicFactor" : 0.5,
                "roughnessFactor" : 0.5
            }
        }
    ],
    "meshes" : [
        {
            "name" : "Cylinder.001",
            "primitives" : [
                {
                    "attributes" : {
                        "POSITION" : 0,
                        "NORMAL" : 1,
                        "TEXCOORD_0" : 2
                    },
                    "indices" : 3,
                    "material" : 0
                }
            ]
        },
        {
            "name" : "Cube.004",
            "primitives" : [
                {
                    "attributes" : {
                        "POSITION" : 4,
                        "NORMAL" : 5,
                        "TEXCOORD_0" : 6,
                        "JOINTS_0" : 7,
                        "WEIGHTS_0" : 8
                    },
                    "indices" : 9,
                    "material" : 1
                }
            ]
        },
        {
            "name" : "Cube.005",
            "primitives" : [
                {
                    "attributes" : {
                        "POSITION" : 11,
                        "NORMAL" : 12,
                        "TEXCOORD_0" : 13,
                        "JOINTS_0" : 14,
                        "WEIGHTS_0" : 15
                    },
                    "indices" : 16,
                    "material" : 2
                }
            ]
        }
    ],
    "skins" : [
        {
            "inverseBindMatrices" : 10,
            "joints" : [
                2,
                1
            ],
            "name" : "Armature"
        },
        {
            "inverseBindMatrices" : 17,
            "joints" : [
                2,
                1
            ],
            "name" : "Armature"
        }
    ],
    "accessors" : [
        {
            "bufferView" : 0,
            "componentType" : 5126,
            "count" : 1129,
            "max" : [
                2.2892799377441406,
                1.398390769958496,
                2.2874934673309326
            ],
            "min" : [
                -2.281029224395752,
                0.011922717094421387,
                -2.28281569480896
            ],
            "type" : "VEC3"
        },
        {
            "bufferView" : 1,
            "componentType" : 5126,
            "count" : 1129,
            "type" : "VEC3"
        },
        {
            "bufferView" : 2,
            "componentType" : 5126,
            "count" : 1129,
            "type" : "VEC2"
        },
        {
            "bufferView" : 3,
            "componentType" : 5123,
            "count" : 3060,
            "type" : "SCALAR"
        },
        {
            "bufferView" : 4,
            "componentType" : 5126,
            "count" : 807,
            "max" : [
                1.3500666618347168,
                6.901470184326172,
                1.3443714380264282
            ],
            "min" : [
                -1.3431377410888672,
                1.1403937339782715,
                -1.3488329648971558
            ],
            "type" : "VEC3"
        },
        {
            "bufferView" : 5,
            "componentType" : 5126,
            "count" : 807,
            "type" : "VEC3"
        },
        {
            "bufferView" : 6,
            "componentType" : 5126,
            "count" : 807,
            "type" : "VEC2"
        },
        {
            "bufferView" : 7,
            "componentType" : 5123,
            "count" : 807,
            "type" : "VEC4"
        },
        {
            "bufferView" : 8,
            "componentType" : 5126,
            "count" : 807,
            "type" : "VEC4"
        },
        {
            "bufferView" : 9,
            "componentType" : 5123,
            "count" : 2088,
            "type" : "SCALAR"
        },
        {
            "bufferView" : 10,
            "componentType" : 5126,
            "count" : 2,
            "type" : "MAT4"
        },
        {
            "bufferView" : 11,
            "componentType" : 5126,
            "count" : 134,
            "max" : [
                5.920884132385254,
                6.8998308181762695,
                2.097424030303955
            ],
            "min" : [
                -0.699603796005249,
                5.505529403686523,
                0.7031232118606567
            ],
            "type" : "VEC3"
        },
        {
            "bufferView" : 12,
            "componentType" : 5126,
            "count" : 134,
            "type" : "VEC3"
        },
        {
            "bufferView" : 13,
            "componentType" : 5126,
            "count" : 134,
            "type" : "VEC2"
        },
        {
            "bufferView" : 14,
            "componentType" : 5123,
            "count" : 134,
            "type" : "VEC4"
        },
        {
            "bufferView" : 15,
            "componentType" : 5126,
            "count" : 134,
            "type" : "VEC4"
        },
        {
            "bufferView" : 16,
            "componentType" : 5123,
            "count" : 252,
            "type" : "SCALAR"
        },
        {
            "bufferView" : 17,
            "componentType" : 5126,
            "count" : 2,
            "type" : "MAT4"
        },
        {
            "bufferView" : 18,
            "componentType" : 5126,
            "count" : 5,
            "max" : [
                1.6666666666666667
            ],
            "min" : [
                0.041666666666666664
            ],
            "type" : "SCALAR"
        },
        {
            "bufferView" : 19,
            "componentType" : 5126,
            "count" : 15,
            "type" : "VEC4"
        },
        {
            "bufferView" : 20,
            "componentType" : 5126,
            "count" : 5,
            "max" : [
                1.6666666666666667
            ],
            "min" : [
                0.041666666666666664
            ],
            "type" : "SCALAR"
        },
        {
            "bufferView" : 21,
            "componentType" : 5126,
            "count" : 15,
            "type" : "VEC4"
        }
    ],
    "bufferViews" : [
        {
            "buffer" : 0,
            "byteLength" : 13548,
            "byteOffset" : 0
        },
        {
            "buffer" : 0,
            "byteLength" : 13548,
            "byteOffset" : 13548
        },
        {
            "buffer" : 0,
            "byteLength" : 9032,
            "byteOffset" : 27096
        },
        {
            "buffer" : 0,
            "byteLength" : 6120,
            "byteOffset" : 36128
        },
        {
            "buffer" : 0,
            "byteLength" : 9684,
            "byteOffset" : 42248
        },
        {
            "buffer" : 0,
            "byteLength" : 9684,
            "byteOffset" : 51932
        },
        {
            "buffer" : 0,
            "byteLength" : 6456,
            "byteOffset" : 61616
        },
        {
            "buffer" : 0,
            "byteLength" : 6456,
            "byteOffset" : 68072
        },
        {
            "buffer" : 0,
            "byteLength" : 12912,
            "byteOffset" : 74528
        },
        {
            "buffer" : 0,
            "byteLength" : 4176,
            "byteOffset" : 87440
        },
        {
            "buffer" : 0,
            "byteLength" : 128,
            "byteOffset" : 91616
        },
        {
            "buffer" : 0,
            "byteLength" : 1608,
            "byteOffset" : 91744
        },
        {
            "buffer" : 0,
            "byteLength" : 1608,
            "byteOffset" : 93352
        },
        {
            "buffer" : 0,
            "byteLength" : 1072,
            "byteOffset" : 94960
        },
        {
            "buffer" : 0,
            "byteLength" : 1072,
            "byteOffset" : 96032
        },
        {
            "buffer" : 0,
            "byteLength" : 2144,
            "byteOffset" : 97104
        },
        {
            "buffer" : 0,
            "byteLength" : 504,
            "byteOffset" : 99248
        },
        {
            "buffer" : 0,
            "byteLength" : 128,
            "byteOffset" : 99752
        },
        {
            "buffer" : 0,
            "byteLength" : 20,
            "byteOffset" : 99880
        },
        {
            "buffer" : 0,
            "byteLength" : 240,
            "byteOffset" : 99900
        },
        {
            "buffer" : 0,
            "byteLength" : 20,
            "byteOffset" : 100140
        },
        {
            "buffer" : 0,
            "byteLength" : 240,
            "byteOffset" : 100160
        }
    ],
    "buffers" : [
        {
            "byteLength" : 100400,
            "uri" : "data:application/octet-stream;base64,"
        }
    ]
}
