{
    "asset" : {
        "generator" : "Khronos Blender glTF 2.0 I/O",
        "version" : "2.0"
    },
    "scene" : 0,
    "scenes" : [
        {
            "name" : "Scene",
            "nodes" : [
                4,
                5
            ]
        }
    ],
    "nodes" : [
        {
            "name" : "Bone.001",
            "rotation" : [
                3.634368894722684e-08,
                -1.338578670129209e-07,
                -0.713042676448822,
                0.7011206746101379
            ],
            "scale" : [
                0.9999999403953552,
                0.9999999403953552,
                1
            ],
            "translation" : [
                -0.3859785497188568,
                5.843891143798828,
                1.4050379991531372
            ]
        },
        {
            "children" : [
                0
            ],
            "name" : "Bone",
            "rotation" : [
                0,
                -0.017954979091882706,
                0,
                0.9998388290405273
            ],
            "translation" : [
                0,
                0.3323342800140381,
                0
            ]
        },
        {
            "mesh" : 0,
            "name" : "Cube",
            "skin" : 0
        },
        {
            "mesh" : 1,
            "name" : "Cube.001",
            "skin" : 1
        },
        {
            "children" : [
                2,
                3,
                1
            ],
            "name" : "Armature",
            "scale" : [
                30,
                30,
                30
            ]
        },
        {
            "mesh" : 2,
            "name" : "Cylinder",
            "scale" : [
                30,
                30,
                30
            ]
        }
    ],
    "animations" : [
        {
            "channels" : [
                {
                    "sampler" : 0,
                    "target" : {
                        "node" : 1,
                        "path" : "rotation"
                    }
                },
                {
                    "sampler" : 1,
                    "target" : {
                        "node" : 0,
                        "path" : "rotation"
                    }
                }
            ],
            "name" : "action_1",
            "samplers" : [
                {
                    "input" : 18,
                    "interpolation" : "CUBICSPLINE",
                    "output" : 19
                },
                {
                    "input" : 20,
                    "interpolation" : "CUBICSPLINE",
                    "output" : 21
                }
            ]
        }
    ],
    "materials" : [
        {
            "name" : "blue",
            "pbrMetallicRoughness" : {
                "baseColorFactor" : [
                    0.0026178769767284393,
                    0.0035736029967665672,
                    0.8000000715255737,
                    1
                ],
                "metallicFactor" : 0.4636363685131073,
                "roughnessFactor" : 0.5
            }
        },
        {
            "name" : "red",
            "pbrMetallicRoughness" : {
                "baseColorFactor" : [
                    0.8000000715255737,
                    0,
                    0.009557452984154224,
                    1
                ],
                "metallicFactor" : 0.5,
                "roughnessFactor" : 0.5
            }
        },
        {
            "name" : "black",
            "pbrMetallicRoughness" : {
                "baseColorFactor" : [
                    0,
                    0,
                    0,
                    1
                ],
                "metallicFactor" : 0.40909090638160706,
                "roughnessFactor" : 0.5
            }
        }
    ],
    "meshes" : [
        {
            "name" : "Cube.001",
            "primitives" : [
                {
                    "attributes" : {
                        "POSITION" : 0,
                        "NORMAL" : 1,
                        "TEXCOORD_0" : 2,
                        "JOINTS_0" : 3,
                        "WEIGHTS_0" : 4
                    },
                    "indices" : 5,
                    "material" : 0
                }
            ]
        },
        {
            "name" : "Cube.002",
            "primitives" : [
                {
                    "attributes" : {
                        "POSITION" : 7,
                        "NORMAL" : 8,
                        "TEXCOORD_0" : 9,
                        "JOINTS_0" : 10,
                        "WEIGHTS_0" : 11
                    },
                    "indices" : 12,
                    "material" : 1
                }
            ]
        },
        {
            "name" : "Cylinder",
            "primitives" : [
                {
                    "attributes" : {
                        "POSITION" : 14,
                        "NORMAL" : 15,
                        "TEXCOORD_0" : 16
                    },
                    "indices" : 17,
                    "material" : 2
                }
            ]
        }
    ],
    "skins" : [
        {
            "inverseBindMatrices" : 6,
            "joints" : [
                1,
                0
            ],
            "name" : "Armature"
        },
        {
            "inverseBindMatrices" : 13,
            "joints" : [
                1,
                0
            ],
            "name" : "Armature"
        }
    ],
    "accessors" : [
        {
            "bufferView" : 0,
            "componentType" : 5126,
            "count" : 622,
            "max" : [
                1.3500666618347168,
                6.901470184326172,
                1.3443714380264282
            ],
            "min" : [
                -1.3431377410888672,
                1.1403937339782715,
                -1.3488329648971558
            ],
            "type" : "VEC3"
        },
        {
            "bufferView" : 1,
            "componentType" : 5126,
            "count" : 622,
            "type" : "VEC3"
        },
        {
            "bufferView" : 2,
            "componentType" : 5126,
            "count" : 622,
            "type" : "VEC2"
        },
        {
            "bufferView" : 3,
            "componentType" : 5123,
            "count" : 622,
            "type" : "VEC4"
        },
        {
            "bufferView" : 4,
            "componentType" : 5126,
            "count" : 622,
            "type" : "VEC4"
        },
        {
            "bufferView" : 5,
            "componentType" : 5123,
            "count" : 2088,
            "type" : "SCALAR"
        },
        {
            "bufferView" : 6,
            "componentType" : 5126,
            "count" : 2,
            "type" : "MAT4"
        },
        {
            "bufferView" : 7,
            "componentType" : 5126,
            "count" : 491,
            "max" : [
                5.920884132385254,
                6.8998308181762695,
                2.097424030303955
            ],
            "min" : [
                -0.699603796005249,
                5.505529403686523,
                0.7031232118606567
            ],
            "type" : "VEC3"
        },
        {
            "bufferView" : 8,
            "componentType" : 5126,
            "count" : 491,
            "type" : "VEC3"
        },
        {
            "bufferView" : 9,
            "componentType" : 5126,
            "count" : 491,
            "type" : "VEC2"
        },
        {
            "bufferView" : 10,
            "componentType" : 5123,
            "count" : 491,
            "type" : "VEC4"
        },
        {
            "bufferView" : 11,
            "componentType" : 5126,
            "count" : 491,
            "type" : "VEC4"
        },
        {
            "bufferView" : 12,
            "componentType" : 5123,
            "count" : 1914,
            "type" : "SCALAR"
        },
        {
            "bufferView" : 13,
            "componentType" : 5126,
            "count" : 2,
            "type" : "MAT4"
        },
        {
            "bufferView" : 14,
            "componentType" : 5126,
            "count" : 799,
            "max" : [
                2.2892799377441406,
                1.398390769958496,
                2.2874934673309326
            ],
            "min" : [
                -2.281029224395752,
                0.011922717094421387,
                -2.28281569480896
            ],
            "type" : "VEC3"
        },
        {
            "bufferView" : 15,
            "componentType" : 5126,
            "count" : 799,
            "type" : "VEC3"
        },
        {
            "bufferView" : 16,
            "componentType" : 5126,
            "count" : 799,
            "type" : "VEC2"
        },
        {
            "bufferView" : 17,
            "componentType" : 5123,
            "count" : 3060,
            "type" : "SCALAR"
        },
        {
            "bufferView" : 18,
            "componentType" : 5126,
            "count" : 5,
            "max" : [
                1.6666666666666667
            ],
            "min" : [
                0.041666666666666664
            ],
            "type" : "SCALAR"
        },
        {
            "bufferView" : 19,
            "componentType" : 5126,
            "count" : 15,
            "type" : "VEC4"
        },
        {
            "bufferView" : 20,
            "componentType" : 5126,
            "count" : 5,
            "max" : [
                1.6666666666666667
            ],
            "min" : [
                0.041666666666666664
            ],
            "type" : "SCALAR"
        },
        {
            "bufferView" : 21,
            "componentType" : 5126,
            "count" : 15,
            "type" : "VEC4"
        }
    ],
    "bufferViews" : [
        {
            "buffer" : 0,
            "byteLength" : 7464,
            "byteOffset" : 0
        },
        {
            "buffer" : 0,
            "byteLength" : 7464,
            "byteOffset" : 7464
        },
        {
            "buffer" : 0,
            "byteLength" : 4976,
            "byteOffset" : 14928
        },
        {
            "buffer" : 0,
            "byteLength" : 4976,
            "byteOffset" : 19904
        },
        {
            "buffer" : 0,
            "byteLength" : 9952,
            "byteOffset" : 24880
        },
        {
            "buffer" : 0,
            "byteLength" : 4176,
            "byteOffset" : 34832
        },
        {
            "buffer" : 0,
            "byteLength" : 128,
            "byteOffset" : 39008
        },
        {
            "buffer" : 0,
            "byteLength" : 5892,
            "byteOffset" : 39136
        },
        {
            "buffer" : 0,
            "byteLength" : 5892,
            "byteOffset" : 45028
        },
        {
            "buffer" : 0,
            "byteLength" : 3928,
            "byteOffset" : 50920
        },
        {
            "buffer" : 0,
            "byteLength" : 3928,
            "byteOffset" : 54848
        },
        {
            "buffer" : 0,
            "byteLength" : 7856,
            "byteOffset" : 58776
        },
        {
            "buffer" : 0,
            "byteLength" : 3828,
            "byteOffset" : 66632
        },
        {
            "buffer" : 0,
            "byteLength" : 128,
            "byteOffset" : 70460
        },
        {
            "buffer" : 0,
            "byteLength" : 9588,
            "byteOffset" : 70588
        },
        {
            "buffer" : 0,
            "byteLength" : 9588,
            "byteOffset" : 80176
        },
        {
            "buffer" : 0,
            "byteLength" : 6392,
            "byteOffset" : 89764
        },
        {
            "buffer" : 0,
            "byteLength" : 6120,
            "byteOffset" : 96156
        },
        {
            "buffer" : 0,
            "byteLength" : 20,
            "byteOffset" : 102276
        },
        {
            "buffer" : 0,
            "byteLength" : 240,
            "byteOffset" : 102296
        },
        {
            "buffer" : 0,
            "byteLength" : 20,
            "byteOffset" : 102536
        },
        {
            "buffer" : 0,
            "byteLength" : 240,
            "byteOffset" : 102556
        }
    ],
    "buffers" : [
        {
            "byteLength" : 102796,
            "uri" : "data:application/octet-stream;base64,"
        }
    ]
}
